<svg xmlns="http://www.w3.org/2000/svg" viewBox="223 274.85 723 270.15"><path fill="#484848" d="M532 305a100 100 0 01129-12l5 5 4 6-2 3a93 93 0 00-149 29c-7 13-10 29-9 44a94 94 0 0010 37l-4 3-4-5c-3-4-4-9-5-13-3-10-4-20-3-30 0-25 11-49 28-67z" opacity=".3"/><path fill="#c5c7c7" d="M561 291c17-8 37-11 56-9 0 3 0 5 2 7l8 8-3 2a81 81 0 00-79 23h-13c-3 1-6 2-9 5 9-15 23-28 38-36z"/><g fill="#1b69af"><path d="M229 289c5-6 12-8 19-7h116l-1 10c-2 5-6 10-11 12l-15 3-28-1v118l1 32c-9 0-18-1-25-7-5-5-7-14-7-21V307l-55-1c1-6 2-12 6-17zM457 282c8 0 17 1 24 7 6 5 8 13 8 20v149c-4 1-8 1-12-1-6-1-12-6-15-12-3-5-4-12-4-18V317l-1-35z"/><path d="M370 341c15-5 32-3 46 4 10 5 18 15 20 26 1 8 0 16-5 22-7 10-19 15-30 16-13 3-25 1-38-1 1 8 4 17 10 23 4 3 9 5 14 6 9 0 17-3 26-6 3-1 8-2 12-1 4 2 6 5 9 8a60 60 0 01-50 20c-14-1-28-8-37-20-9-11-15-25-15-39s4-28 12-39c6-9 16-15 26-19m4 25c-6 5-9 14-10 22l24 3c6-1 12-2 16-6 4-3 5-8 5-13-1-6-6-10-11-12-9-2-18 0-24 6zM749 340c13-3 26-2 40 1 10 2 20 9 26 18 5 10 7 20 7 31l1 66c-8 0-17-2-24-7-5-5-7-13-7-20v-38c0-9-2-18-7-25-6-6-16-7-24-6-6 2-10 6-13 11-4 8-4 17-4 25l1 60c-8 0-17-1-24-7-6-5-8-13-8-20l1-34c0-9 0-18 3-27 2-6 6-11 10-16 6-6 13-10 22-12zM882 340c15-4 31-2 44 5 10 6 18 15 19 25 2 8 1 16-3 22-5 8-14 13-23 16-10 2-20 3-30 2l-16-2c1 5 2 11 5 16 4 6 9 11 16 12 10 2 19-1 28-4 4-2 9-3 13-1 4 1 6 4 8 7-4 5-9 9-15 12a56 56 0 01-77-19 67 67 0 010-67c7-11 18-20 31-24m0 27c-5 6-7 13-9 21 8 2 17 3 25 2 5 0 11-1 15-5 5-3 6-8 6-13-1-6-6-10-11-11-9-3-20-1-26 6z"/></g><path fill="#bcbebe" d="M617 282a93 93 0 0155 29c-6 3-12 4-18 4l-9-6c-6-4-14-7-21-10l3-2-8-8c-2-2-2-4-2-7z"/><path fill="#929393" d="M589 298c12-2 24-2 35 1 7 3 15 6 21 10h-8l-6-2c-20-8-43-7-62 2l-8 6-1 1-3 1a32 32 0 00-8 8 68 68 0 00-20 40l-1 5h-3v-1a77 77 0 0120-47c12-13 27-21 44-24z"/><g fill="#424242"><path d="M666 298c6 3 10 8 15 13 15 18 23 42 23 65 0 26-11 52-29 70a99 99 0 01-97 26c-23-5-44-20-57-40-4-5-7-11-9-17l4 5 4-3 9 15a92 92 0 0051 33 95 95 0 0080-16 94 94 0 007-142l3-3-4-6zM558 436l8 5-8-5z" opacity=".3"/></g><path fill="#1876b2" d="M569 309c19-9 42-10 62-2v1h-1l-18-4c-13-1-27 0-40 6l-11 5 8-6z"/><path fill="#86c7e1" d="M572 310c13-6 27-7 40-6l-14 6-4 1c-7 1-15 1-22-1z"/><path fill="#88b6d3" d="M612 304l18 4 1 1-5 4-1 1c-9-3-18-4-27-4l14-6z"/><path fill="#216b9a" d="M631 307l6 2 14 10h-2l-5-3-13-8v-1z"/><path fill="#62a5cb" d="M630 308h1l13 8c5 4 9 10 12 16-7-1-13-4-19-3-2-1-5-3-6-7v-7-6l-1-1z"/><path fill="#f7ffff" d="M631 309v6l-5-2 5-4z"/><path fill="#848586" d="M637 309h8a69 69 0 0114 12l-6-1-2-1-14-10z"/><path fill="#6bb8d9" d="M561 315l11-5c7 2 15 2 22 1l-8 6c-10 5-20 7-30 10l3-9a123 123 0 012-3z"/><path fill="#67abd2" d="M594 311l4-1c9 0 18 1 27 4l-4 4-1-1-20-1-14 1 8-6z"/><path fill="#a7a9aa" d="M672 311l10 12c-6 2-12 6-18 3l-5-5-5-6c6 0 12-1 18-4z"/><path fill="#c9ffff" d="M625 314l1-1 5 2v7l-10-4 4-4z"/><g fill="#36ffff"><path d="M557 317l3-1-1 2c-5 4-10 9-12 15-4 7-5 16-4 24 0 5 2 11-1 16-1 2-4 2-6 3l-3-18c0-4 0-7 2-10a102 102 0 0115-24l7-7zM570 433l7 3-1 1-8 5-1 1 3-9v-1z"/></g><path fill="#4fa3cf" d="M586 317l14-1 20 1-11 10-4 4c-3-2-6-4-10-4-8-1-17-2-26 0-5 1-10 4-14 7l1-7c10-3 20-5 30-10z"/><path fill="#4698c4" d="M644 316l5 3c3 4 7 8 9 13 4 7 6 15 4 23a101 101 0 00-25-26c6-1 12 2 19 3-3-6-7-12-12-16z"/><g fill="#1e75ab"><path d="M550 324l7-7-7 7zM625 441l21-8-1 5-3 2-13 6c-12 5-26 6-39 3l21-6 14-2z"/></g><path fill="#8effff" d="M620 317l1 1 10 4c1 4 4 6 6 7l9 8c-7-1-12-5-19-6l-18-4 11-10z"/><path fill="#a9ffff" d="M547 333c2-6 7-11 12-15a109 109 0 00-4 16v1h-1l-7 2v-4z"/><path fill="#1b7ab0" d="M649 319h2l2 1v1l6 6 5 6 5 11c9 16 10 35 5 52 1-7-1-15-3-22l-1-5-2-14-4 3-1-2-1-1c2-8 0-16-4-23-2-5-6-9-9-13z"/><path fill="#777879" d="M653 320l6 1 5 5a83 83 0 0117 56l-1-1-2-8a74 74 0 00-19-46l-6-6v-1z"/><path fill="#2c6285" d="M653 321l6 6-6-6z"/><path fill="#babdbd" d="M523 327c3-3 6-4 9-5h13c-5 5-9 11-12 17-5 0-10-1-14-3l4-9z"/><path fill="#9d9e9f" d="M682 323c6 10 11 21 13 33l-15 6c-2-13-8-25-16-36 6 3 12-1 18-3z"/><path fill="#1a7fb8" d="M529 365c2-15 8-30 20-40-6 7-11 14-14 23-2 3-2 6-2 10v22c0 5 0 10 2 15 2 7 6 14 11 20l7 6 17 13-3 9-1-2-8-5-11-10c0-2-1-4-4-4l-8-13c-3-7-5-14-6-22v-22z"/><path fill="#2f98ca" d="M569 327c9-2 18-1 26 0 4 0 7 2 10 4l-2 1-19 16a14721 14721 0 0034 53l-23-34-11-16-7 20c-6-3-12-7-15-13-5-7-6-15-7-23v-1c4-3 9-6 14-7z"/><path fill="#6fffff" d="M605 331l4-4 18 4c7 1 12 5 19 6 6 5 11 11 16 18l1 1-4 8c-5 0-11 0-16-3-10-6-19-14-27-22l-13-7 2-1z"/><path fill="#5cffff" d="M584 348l19-16 13 7c8 8 17 16 27 22 5 3 11 3 16 3-5 9-12 19-22 23-3-3-8-4-13-5l-1 21-4-4-35-51z"/><path fill="#81ffff" d="M543 357c-1-8 0-17 4-24v4l7-2c-5 7-7 15-8 24l-3-2z"/><path fill="#1f698f" d="M664 333c9 11 13 25 14 40v13c-3 21-15 41-33 52l1-5v-1 4a74 74 0 0023-93l-5-10z"/><path fill="#bfc1c1" d="M519 336c4 2 9 3 14 3-4 9-7 19-8 30-3 6-10 7-15 11-1-15 2-31 9-44z"/><path fill="#58ffff" d="M554 335h1c1 8 2 16 7 23 3 6 9 10 15 13l7-20 11 16 23 34 3 5-44 30-7-3 1-7a84 84 0 01-22-22c-1-3-2-7-5-10-4-5-6-11-8-18 2-1 5-1 6-3 3-5 1-11 1-16l3 2c1-9 3-17 8-24z"/><path fill="#318cbc" d="M664 358l4-3 2 14-6-10v-1z"/><path fill="#46ffff" d="M663 356l1 2v1l-3 9 3 9a68 68 0 01-2 36c-3 8-9 15-16 19v-15c0-11-2-22-9-30 10-4 17-14 22-23l4-8z"/><path fill="#919293" d="M680 362l15-6c2 8 2 16 2 24l-3-2c-5 1-8 4-13 4l-1-20z"/><g fill="#a6ffff"><path d="M533 358l3 18c2 7 4 13 8 18 3 3 4 7 5 10l-8-11-8-24v-11zM667 386l2 3c-1 8-3 17-7 24a767 767 0 015-27z"/></g><path fill="#6ff" d="M664 359l6 10 1 5v7l-7-4-3-9 3-9z"/><path fill="#306c91" d="M528 370l1-5a2462 2462 0 00-1 5z"/><path fill="#b3b5b5" d="M510 380c5-4 12-5 15-11v1l1 21c-1 4-6 6-10 8v9c-3-9-5-18-6-28z"/><path fill="#56b4dc" d="M533 369l8 24-5 1-3-14v-11z"/><path fill="#868788" d="M525 370h3c-1 6 0 12 1 17 1 8 3 15 6 22l8 13 4 4 11 10 8 5 1 2 2 1-14-7a79 79 0 01-30-67z"/><path fill="#666a6e" d="M678 373l2 8a75 75 0 01-45 64l7-5 3-2c18-11 30-31 33-52v-13z"/><path fill="#35f2ff" d="M671 374c2 7 4 15 3 22-4 16-14 31-28 40v-4c7-4 13-11 16-19 4-7 6-16 7-24a268 268 0 002-15z"/><path fill="#85ffff" d="M664 377l7 4-2 8-2-3-2 13c1-7 1-14-1-22z"/><path fill="#828385" d="M681 382c5 0 8-3 13-4l3 2c-1 19-8 38-20 53l-19-3c13-13 22-30 22-49l1 1z"/><path fill="#41a9d6" d="M533 380l3 14 5-1 8 11 1 2-4 9c-5-6-9-13-11-20-2-5-2-10-2-15z"/><path fill="#2795c9" d="M624 382c5 1 10 2 13 5 7 8 9 19 9 30-9 6-16 15-26 19-9 5-19 4-28 4-6 0-11-2-16-3l1-1 44-30-3-5 1-2 4 4 1-21z"/><path fill="#a8aaab" d="M526 391c4 18 15 34 29 46-8-2-17-5-26-5a89 89 0 01-13-24v-9c4-2 9-4 10-8z"/><path fill="#2a9bce" d="M546 415l4-9c5 8 13 15 21 20l-1 7v1l-17-13-7-6z"/><path fill="#2285b9" d="M620 436c10-4 17-13 26-19v16l-21 8-14 2-21 6c-7-1-15-4-22-7l8-5c5 1 10 3 16 3 9 0 19 1 28-4z"/><path fill="#2c668b" d="M543 422c3 0 4 2 4 4l-4-4z"/><path fill="#909192" d="M635 445c9-3 16-9 23-15l19 3c-5 6-11 12-17 16-10 1-20 4-29 8l-9 5c-2 1-2 3-3 5-13 2-26 2-39-2l-2-3 18-8-6-3h23c8 0 15-3 22-6z"/><path fill="#afb0b1" d="M529 432c9 0 18 3 26 5l14 7 5 2c-6 4-14 5-21 7-9-5-17-13-24-21z"/><g fill="#444b4d"><path d="M629 446l13-6-7 5c-7 3-14 6-22 6h-23a82 82 0 01-21-7l-2-1 1-1c7 3 15 6 22 7 13 3 27 2 39-3zM339 502h6v13l5-2c3-1 6 0 8 2s2 5 2 7v14h-6v-13l-2-5c-3-1-6 1-7 3v15h-6v-34zM815 502l5 1 1 11c3-1 6-3 10-1 3 1 4 4 4 7v16h-6v-17c-2-3-8 0-8 3v14h-6v-34zM313 505h24v5h-9v26h-6v-26h-9v-5zM399 505h17v5h-11v8l11 1v4l-11 1v12h-6v-31zM537 505h6v31h-6v-31zM578 505c5 0 10-1 16 1 3 0 5 4 5 8l-3 5 5 7c0 4-2 8-6 9-6 2-11 1-17 1v-31m6 4v9l6-1c3 0 3-5 1-7l-7-1m0 13v9h8c3-2 2-7-1-8l-7-1zM706 505h24v5h-9v26h-6v-26h-9v-5zM644 506h6v7h6v5h-6v13h6v5h-8c-2 0-4-2-4-4v-14h-9v13h5v5h-8c-2-1-3-3-3-5v-13l-4-1v-4h3l1-6h5l1 6h9v-7zM447 507h5l1 6h5v5h-5v13h6l-1 5c-4 2-10 1-11-4l-1-14h-3v-5h3l1-6zM800 507h5l1 6h5v5h-5v13h5v5l-7 1c-2-1-4-3-4-5v-14l-4-1v-4h4v-6zM370 513c5-1 10-1 12 3 3 2 2 6 2 10h-15c1 2 1 5 4 6l11-1-1 4c-5 2-10 3-15 0-4-2-5-8-5-12 1-4 3-9 7-10m-1 9h10c-1-2-2-6-5-5-3 0-4 3-5 5zM496 513h5v5l-5 1c-2 1-3 2-3 4v13h-6v-23h5v3l4-3zM507 514c4-3 11-2 14 2 2 3 2 7 2 10h-16c1 2 2 5 4 6l11-1v4c-5 2-10 3-15 1-3-2-5-5-5-9-1-5 0-11 5-13m0 8h11c-2-2-2-5-5-5-3-1-5 3-6 5zM550 514c3-2 7-2 11-1 2 1 2 3 2 5l-7-1-4 2 10 5c2 2 2 5 2 8-1 3-4 4-7 5-3 0-7 0-9-2l-1-4c3 0 7 2 10 0l1-2-8-4c-4-2-3-9 0-11zM604 519c2-8 14-9 18-3 2 3 2 7 2 10h-15c1 2 1 5 3 6 4 1 7-1 11-1v4c-5 2-12 3-17 0-4-4-4-11-2-16m4 3h11c-1-2-2-6-5-5-3-1-4 3-6 5zM664 513c5-1 10-1 12 3 3 3 2 6 2 10h-15c0 2 2 5 4 6l11-1-1 4-7 2c-3 0-7 0-10-3s-3-8-3-12c1-4 3-8 7-9m-1 9h10c-1-2-2-6-5-5-3-1-4 3-5 5z"/><path d="M734 513c5-2 12-1 14 5 3 5 2 14-4 17-5 3-13 2-16-4s-2-16 6-18m2 4c-4 2-4 8-3 12s8 4 9 0c2-3 2-6 0-10-1-2-3-2-6-2zM780 513c4-2 10-1 13 3 2 3 2 7 2 10h-15c1 2 1 5 3 6 4 1 7-1 11-1v4c-5 2-11 3-15 0-4-2-5-7-5-11s2-9 6-11m0 9h10c-1-2-2-6-5-5-3-1-4 3-5 5zM845 513c4-2 10-1 13 3 2 3 2 7 2 10h-15c1 2 1 5 3 6 4 1 7-1 11-1v4c-5 2-11 3-15 0-4-2-5-7-5-11s2-9 6-11m-1 9h11c-1-2-2-5-5-5-3-1-4 3-6 5zM870 515c2-2 5-3 8-2v5l-5 1c-2 1-3 2-3 4v13h-6v-23h4l2 2zM420 513h6c0 6-1 12 1 17 2 3 7 0 7-3v-14h7v23l-7-1-9 2c-3-1-5-4-5-7v-17zM461 513h7v17c2 3 7 1 8-2v-15h6v23h-5v-3l-6 4c-3 0-6-1-8-3s-2-5-2-7v-14zM752 518c1-3 5-5 8-5h13v4l-2 1c-1 3-1 7-3 9-4 2-8 1-11 1 3 5 9 1 13 5 3 2 3 7 0 9-3 3-7 3-11 3-3 0-6-1-8-3-1-3 1-6 2-8v-7l-1-9m7-1c-2 1-2 4 0 6s6 1 6-2c1-3-3-5-6-4m-1 18l-1 4 3 2 5-1 2-4-9-1z"/></g><path fill="#9d9ea0" d="M553 453c7-2 15-3 21-7l16 5 6 3-18 8 2 3c-10-2-19-6-27-12z"/><path fill="#88898b" d="M631 457c9-4 19-7 29-8-12 10-26 16-41 18 1-2 1-4 3-5l9-5z"/><path fill="#444b4d" d="M687 516c3-3 6-4 9-4v6c-3 0-6 0-7 3l-1 15h-6v-23h5v3z"/></svg>